/* XPM */
static char *d88e72aee0704b4ca725482022b9311fosM5dKRJX8h0NuZA[] = {
/* columns rows colors chars-per-pixel */
"64 64 181 2 ",
"   c #36541E",
".  c #3D5E24",
"X  c #3E572D",
"o  c #3E5832",
"O  c #3E6838",
"+  c #425C2C",
"@  c #445C32",
"#  c #43602B",
"$  c #48662E",
"%  c #4E6D2F",
"&  c #4E752F",
"*  c #4B6735",
"=  c #496931",
"-  c #4E663A",
";  c #476A3C",
":  c #566F36",
">  c #526D39",
",  c #4C7131",
"<  c #49733E",
"1  c #477D3F",
"2  c #4D793F",
"3  c #547335",
"4  c #597635",
"5  c #5B7937",
"6  c #54743D",
"7  c #577939",
"8  c #5B7B3E",
"9  c #586F45",
"0  c #54614B",
"q  c #58654F",
"w  c #5C6D4F",
"e  c #4F7741",
"r  c #457C40",
"t  c #4C7D42",
"y  c #4E794D",
"u  c #537343",
"i  c #597542",
"p  c #547B43",
"a  c #5D7B44",
"s  c #5C7448",
"d  c #5D7C49",
"f  c #596651",
"g  c #5D6B53",
"h  c #5D7A54",
"j  c #617D45",
"k  c #617E4C",
"l  c #627255",
"z  c #687F55",
"x  c #677B5B",
"c  c #6B7B5E",
"v  c #727F69",
"b  c #4E8145",
"n  c #498943",
"m  c #548246",
"M  c #5A8447",
"N  c #538349",
"B  c #5B854A",
"V  c #5E894B",
"C  c #5A994B",
"Z  c #5E8755",
"A  c #5B9054",
"S  c #5F9957",
"D  c #648546",
"F  c #63844B",
"G  c #6A854D",
"H  c #638B4D",
"J  c #6A8D4E",
"K  c #758D4B",
"L  c #6C944E",
"P  c #789147",
"I  c #74944E",
"U  c #72994F",
"Y  c #7C9D4E",
"T  c #628251",
"R  c #6A8552",
"E  c #648C52",
"W  c #6C8D52",
"Q  c #67855B",
"!  c #6E865A",
"~  c #608A5A",
"^  c #6E885B",
"/  c #718755",
"(  c #728D56",
")  c #679151",
"_  c #6C9352",
"`  c #6E9B52",
"'  c #6F9D5E",
"]  c #729553",
"[  c #749C52",
"{  c #799E51",
"}  c #73935B",
"|  c #729D5D",
" . c #799D5B",
".. c #7EA04E",
"X. c #6DA15A",
"o. c #75A252",
"O. c #7BA452",
"+. c #75AA55",
"@. c #7BAA53",
"#. c #71A15B",
"$. c #7CA359",
"%. c #76AF5D",
"&. c #7DAD5A",
"*. c #7EB056",
"=. c #74B25B",
"-. c #7DB058",
";. c #7EB159",
":. c #6E8461",
">. c #6C8D63",
",. c #738565",
"<. c #758D61",
"1. c #738169",
"2. c #798C6A",
"3. c #639660",
"4. c #699563",
"5. c #6B9B62",
"6. c #6C976B",
"7. c #6E9868",
"8. c #749662",
"9. c #7C9462",
"0. c #7E9F61",
"q. c #75916B",
"w. c #7B916B",
"e. c #7B9868",
"r. c #7F8A76",
"t. c #71A565",
"y. c #79A064",
"u. c #7BA26C",
"i. c #BFA100",
"p. c gold",
"a. c #80A753",
"s. c #81A953",
"d. c #81AA54",
"f. c #84AA59",
"g. c #81AD5A",
"h. c #82AD5B",
"j. c #82AE5A",
"k. c #83AE5D",
"l. c #85AF5F",
"z. c #81B25D",
"x. c #83B55F",
"c. c #809A66",
"v. c #839D6A",
"b. c #858E7C",
"n. c #819672",
"m. c #849975",
"M. c #879A79",
"N. c #889A7A",
"B. c #81A167",
"V. c #84AD62",
"C. c #85A569",
"Z. c #85A96F",
"A. c #8AAD6B",
"S. c #86B061",
"D. c #85B362",
"F. c #89B165",
"G. c #85B963",
"H. c #87BA66",
"J. c #8BB26B",
"K. c #90B46C",
"L. c #87A371",
"P. c #89A272",
"I. c #82AA72",
"U. c #89AD75",
"Y. c #90B272",
"T. c #92B07C",
"R. c #98B87C",
"E. c #8C9782",
"W. c #909B86",
"Q. c #939B8A",
"!. c #999E94",
"~. c #9A9C98",
"^. c #96AB81",
"/. c #99A78F",
"(. c #9CAC88",
"). c #94B080",
"_. c #9BA492",
"`. c #9FA39B",
"'. c #A1A69E",
"]. c #A3A89C",
"[. c white",
/* pixels */
"@.@.@.@.@.@.@.@.@.@._ _ k } _ @.@.@.O.@.@.O.O.O.@.@.@.@.@.@.@.@.@.@.@.@.@.@.@.@.O.@.*.z.O.O.O.@.O.O.@.S.@.@.l.l.@.@.O.@.@.O.Y @.",
"@.@.@.@.O.@.@.@.@.@.@.@.@.@.@.@.@.@.@.@.@.O.O.z.@.@.@.@.@.@.o.[ @.@.@.@.@.@.O.O.O.O.@.@.O.O.O.O.O.O.O.@.@.k.O.@.O.@.O.@.O.O.O.@.",
"@.@.@.@.O.O.@.@.O.@.@.&.@.@.-.@.@.@.@.l.@.@.@.H.@.@.@.@.@.@._ H @.@.o.O.@.@.O.O.O.@.@.O.O.O.O.O.O.O.O.@.Y { { @.@.{ [ O.O.@.@.@.",
"@.@.O.@.@.O.O.O.O.O.O.@.O.@.@.@.@.@.@.j.l.@.@.@.@.@.@.@.@.@.H m @.@.) ] @.@.O.@.@.@.@.O.O.O.O.O.O.O.O.O.O.O.O.O.[ { @.O.) H B @.",
"@.@.O.@.@.@.O.O.O.Y O.O.O.-.x.@.j.@.@.@.o.[ @.@.[ O.@.@.@.@.V m @.@.V @.O.O.s.G.@.O.@.O.O.O.O.O.O.O.O.O.O.@.@.{ [ O.O.@.@.@.o.@.",
"@.@.@.@.l.@.@.@.O.@.@.@.O.&.&.@.@.@.@.{ o.@.@.@.L O.@.O.@.@.{ b ) { H @.O.O.@.@.O.{ @.@.O.O.O.j.j.f.a.O.O.O.O.O.O.O.@.@.@.@.@.@.",
"@.@.@.@.F.@.@.@.@.@.@.@.@.H.@.@.@.@.O.[ ` O.@.[ ] O.O.O.@.@.@.B o.@.@.@.@.O.s.{ Y { @.O.Y O.O.O.@.{  .8 f.Y O.O.O.O.@.@.@.@.@.@.",
"@.@.@.V.S.@.@.@.@.l.S.@.o.o.@.@.@.@.@.o.[ Y O._ J O.@.O.@.@.@.@.@.@.@.@.j.@.@.@.P [ J Y Y @.[ J ] { ] G $.] O.O.O.x.G.@.@.O.o.o.",
"@.@.@.j.@.o.[ [ @.S.@.z.@.o.@.@.@.@.@.@.@.O.O._ H @.O.O.@.@.@.S.@.O.O.O.[ O.@.{ Y _ [ @.O.[ o.H W { [ J F [ { O.@.G.O.@.@.O.[ [ ",
"@.@.@.S.@.O.} } O.@.@.@.o.j.@.@.@.@.@.O.@.@.O.L H @.@.@.@.@.l.j.@.O.O.O.) O.@.O.{ H @.@.5 ] [ p a ] L F < _ { [ O.@.O.@.@.@.O.O.",
"@.o.o.@.@.@.{ } O.@.@.@.@.M./.W.W @.@.O.O.@.@.@.@.@.@.@.@.j.l.@.@.O.Y O.L O.{ @.[ H { O.I ] p H 2 ] G < _ O.H O.O.O.@.@.@.@.@.@.",
"@.[ } @.@.O.@.@.z.j.@.@.N.'.`.Q.E.2.F } @.@.@.@.@.@.@.@.@.@.@.@.@.@.Y Y L O.O.O.] L ] Y O.O.p B m H F e { L { O.O.@.l.@.@.@.o.o.",
"@.o.o.@.) ) O.@.@.j.@.l g v r.1.b.1.d  .] ] l.j.@.@.o.[ @.{ @.@.@.@.@.O.{ @.@.O.K Y I I $.j.O.F 6 M t e J _ O.O.O.O.l.@.@.O.[ [ ",
"@.@.@.@.) ) O.@.@.@.} W q f 0 g f w T } L [ V.j.@.@.) ) @.V _ @.@.@.@.O.{ @.@.O.I { J I { O.[ G p O < ; d { @.@.O.@.O.j.O.@.O.O.",
"@.@.@.@.o.V O.O.@.@.@.@.[ } R R j i D W W _ @.O.@.@.@.B @.m m @.@.@.O.@.O.O.o.O.I Y J { Y O.{ I G o ; u W [ O.O.O.@.@.O.@.@.@.@.",
"@.l.@.@.o.V O.@.@.@.@.j.j.@.&.@.@.j.@.{ { { O.@.@.@.@.H E o.1 @.@.@.O.@.O.O.{ O.Y Y H { { O.O.] G G J [ { [ @.O.O.O.@.@.@.@.@.F.",
"j.j.@.@.@.@.@.@.@.@.@.j.j.l.j.@.@.@.O.@.@.@.@.@.-.p.i.i.i.i.i.i.i.i.i.i.i.i.d O.O.I J { Y O.O.O.O.O.@.@.O.O.@.@.O.O.O.@.o.o.o.S.",
"@.l.@.@.@.@.@.@.@.@.@.@.-.@.d.@.@.O.Y O.j.l.@.@.i.p.i.p.p.p.p.p.p.[.[.[.p.p.i.i.8 ] I Y d.O.@.O.O.@.@.o.@.x.J.V.o.O.{ o.[ @.` @.",
"@.@.@.O.@.@.O.@.@.@.@.@.-.@.O.@.O.O.Y O.@.S.K.i.p.i.[.[.[.p.p.p.p.p.[.[.[.p.p.p.i.{ O.O.O.@.@.O.O.@.o.o.-.U.Z.y.` o.L ) ` H V @.",
"@.@.@.O.@.O.O.O.O.@.j.) ` @.@.@.@.O.@.@.@.@.i.p.p.i.p.[.[.[.p.p.p.p.p.[.[.[.p.p.i.] ) O.O.@.@.@.O.o.[ ` 7.u.t.S Z  .L H ` H o.@.",
"@.@.@.@.@.@.@.O.[ @.j.@.j.j.@.@.@.-.o.@.@.@.i.p.p.i.p.p.[.[.[.p.p.p.p.p.[.[.[.p.i.@._ @.@.@.@.j.@.+.` V B >.I.A y 6.N M +.m | O.",
"@.@.j.@.@.@.@.@.G.@.@.@.T.J.A.&._ o.` @.@.@.i.p.p.i.p.p.p.[.[.p.p.p.p.p.p.[.[.[.i.Q 8.O.@.@.@.[ [ &.+.H m X.=.V t 4.t m =.B | &.",
"@.@.j.@.@.@.@.@.-.x.@.).H.z.A.q.V H _ @.O.[ i.p.p.i.p.p.p.p.[.[.p.p.p.p.p.p.[.[.i.h } 0.@.@.O.[ B @.-.B V #.#.E t 3.B B =.~ 5.x.",
"-.@.@.@.@.@.o.-.-.&.M.w.} &.C.<.W @._ @.@.[ i.p.p.i.[.[.p.p.[.[.[.p.p.p.p.p.p.[.i.$. .{ O.@.O.@.E ` &.E ` ' ` E 1 ) M m =.T 4.@.",
"z.@.j.@.O.O.H @.@.&.} x ^ 8.B.! } O.[ @.@.[ i.p.p.i.[.[.p.p.p.[.[.[.p.p.p.p.p.p.i. .[ [ { @.O.O.@.E -.) V | +.E 1 V V t H p O.-.",
"@.@.@.@.O.O.J O.+.o.) [ O.&.@.[ [ @.o.o.@.[ i.p.p.i.[.[.[.p.p.p.[.[.[.p.p.p.p.p.i.O.O.O.@.@.@.O.o.E +.) H 5.o.F t m ` [ B u @.z.",
"S.@.l.@.O.O.[ [ [ ] ) O.&.@.{ { o.@.O.O.{ { i.p.p.i.p.[.[.p.i.i.i.i.i.i.[.p.p.p.i.@.o._ @.@.@.O.O.` ` E ) ' ` ) B H E L [ } @.-.",
"-.@.@.@.O.O.[ _ { O._ @.@.O.O.o.O.H m m m m i.p.p.i.p.[.[.i.i.i.i.i.i.i.i.p.p.p.i.o.o.B [ { @.[ _ O.[ E O.@.#._ [ H H _ o.O.@.@.",
"@.@.@.j.@.@.@.O.@.O.[ O.@._ ) V H m p B @.B i.p.p.i.p.p.[.i.p.p.p.p.[.[.i.[.p.p.i.) @.o.V V @.V _ O.o.[ { O.@.o.) H ] @.l.[ @.@.",
"j.@.@.@.o.o.o.@.@.@.@.@.@.o.o.B ) H m m @.@.i.p.p.i.p.p.[.i.[.[.p.p.p.[.i.[.[.p.i.m o.o.n C ) ) O.O.O.O.{ O.@.@.{ ) _ &.l.} O.@.",
"@.@.@.o.) V V @.@.@.@.@.O.O.@.@.@.@.@.j.@.@.i.p.p.i.[.p.p.i.[.[.p.p.p.p.i.[.[.[.i.B V o.e H e M @.@.@.@.{ @.-.@.@.V { @.@.@.@.@.",
"@.@.@.@.@.@.@.@.@.@.@.@.O.O.@.@.@.@.J.R.J.@.i.p.p.i.[.p.p.i.[.[.[.p.p.p.i.p.[.[.i.) B B ; i u F @.@.O.@.@.@.-.@.@.@.@.@.@.@.@.@.",
"@.@.@.@.@.@.@.@.O.@.*.z.O.O.O.@.O.O.@.S.@.@.i.p.p.i.[.p.p.i.p.[.[.[.p.p.i.p.p.[.i.@._ _ k } _ @.@.@.O.@.@.Y O.O.@.@.@.@.@.@.@.@.",
"@.@.@.@.@.@.O.O.O.O.@.@.O.O.O.O.O.O.O.@.@.~.i.p.p.i.[.p.p.i.p.p.[.[.[.p.i.p.p.p.i.@.@.@.@.@.@.@.@.@.@.@.@.O.O.x.@.@.@.@.@.@.o.o.",
"@.@.o.O.@.@.O.O.O.@.@.O.O.O.O.O.O.O.O.@.O.z i.p.p.i.[.p.p.i.p.p.[.[.[.p.i.p.p.p.i.@.@.&.@.@.-.@.@.@.@.l.@.@.@.H.@.@.@.@.@.@.[ o.",
"@.@.) ] @.@.O.@.@.@.@.O.O.O.O.O.O.O.O.O.O.{ i.p.p.i.[.p.p.i.p.p.p.[.[.[.i.p.p.p.i.O.O.@.O.@.@.@.@.@.@.j.l.@.@.@.@.@.@.@.@.@.` o.",
"@.@.V @.O.O.s.G.@.O.@.O.O.O.O.O.O.O.O.O.O.@.i.p.p.i.p.p.p.i.p.p.p.p.[.[.i.p.p.p.i.Y O.O.O.*.x.@.j.@.@.@.o.[ @.@.[ O.@.@.@.@._ o.",
") { H @.O.O.@.@.O.{ @.@.O.O.O.j.j.f.a.O.O.O.i.p.p.i.p.p.p.i.i.i.i.i.i.i.i.[.[.p.i.@.@.@.O.&.&.@.@.@.@.{ o.@.@.@.L O.@.O.@.@.O.o.",
"o.@.@.@.@.O.s.{ Y { @.O.Y { O.O.d.( 9.8 f.Y i.p.p.i.p.p.p.p.i.i.i.i.i.i.[.[.[.[.i.@.@.@.@.H.@.@.@.@.O.[ ` O.@.[ ] O.O.O.@.@.@.{ ",
"@.@.@.@.j.@.@.@.P [ J Y Y O.8 3 j R F a 9./ i.p.p.i.p.p.p.p.p.p.p.p.p.p.p.[.[.[.i.l.S.@.o.o.@.@.@.@.@.o.[ Y O._ J O.@.O.@.@.@.@.",
"@.@.@.O.[ O.@.{ Y _ [ @.O.D G j j j 3 % 9 i i.p.p.i.p.p.p.p.p.p.p.p.p.p.p.p.[.[.i.S.@.z.@.o.@.@.@.@.@.@.@.O.O._ H @.O.O.@.@.@.S.",
"@.O.O.O.) O.@.O.{ H @.@.4 : 4 - > > $ + X @ i.p.p.i.p.p.p.p.p.p.p.p.p.p.p.p.p.[.i.@.@.@.o.j.@.@.@.@.@.O.@.@.O.L H @.@.@.@.@.l.j.",
"@.O.Y O.L { { @.[ H { O.I : # * + % # i ( { i.p.p.i.[.[.p.p.p.p.p.p.p.p.p.p.p.p.i.@.@.@.@.M.M.2.H @.@.O.O.@.@.@.@.@.@.@.@.j.l.@.",
"@.@.Y Y L O.O.O.] U ] Y O...D F G [ ] J O.] i.p.p.i.[.[.[.p.p.p.p.p.p.p.p.p.p.p.i.j.@.@.n.M.:.:.w.,.F } @.@.@.@.@.@.@.@.@.@.@.@.",
"@.@.@.O.{ @.@.O.K Y I I $.j.U D F H H W _ _ i.p.p.i.p.[.[.[.[.p.p.p.p.p.p.[.p.p.i.j.@.l g l c x :.c d  .} ] l.j.@.@.o.[ @.{ @.@.",
"@.@.@.O.{ @.@.O.I { J I { O.L D G a F H F { @.i.p.p.i.p.[.[.[.[.p.p.p.p.[.p.p.p.i.@.} W q f 0 g f w T _ J [ V.j.@.@.) ) @.V _ @.",
"@.@.@.@.O.O.o.O.I Y J { Y O.{ I _ a F D W [ O.O.i.p.p.i.p.p.[.[.p.p.p.p.p.p.i.i.@.@.@.@.[ } R R j i D W W _ @.O.@.@.@.B @.m m @.",
"O.O.@.@.O.O.{ O.Y Y H { { O.o.] J J ] { { [ @.O.O.i.p.i.i.i.i.i.i.i.i.i.i.i.O.@.@.@.@.j.j.@.&.@.@.j.@.{ { { O.@.@.@.@.H E o.1 @.",
"] ] 6 ! 6 , d O.O.I J { Y O.O.O.O.O.@.@.O.O.@.@.O.O.O.@.o.o.o.S.j.j.@.@.@.@.@.@.@.@.@.j.j.l.j.@.@.@.O.@.@.@.@.@.-.@.@.O.b ) t @.",
"] 7 i ^ 8 & d 3 8 ] I Y d.O.@.O.O.@.@.o.@.x.J.V.o.O.{ o.[ @.` @.@.l.@.@.@.@.@.@.@.@.@.@.-.@.d.@.@.O.Y O.j.l.@.@.@.@.@.O.m H @.] ",
"  + - 6 ] 6 > = s { O.O.O.@.@.O.O.@.o.o.-.U.Z.y.` o.L L ` H V @.@.@.@.O.@.@.O.@.@.@.@.@.-.@.O.@.O.O.Y O.@.S.K.j.@.@.-.@.) 1 F { ",
"8 X   + i = . # + ] ) O.O.@.@.@.O.O.[ ` 7.u.t.S Z  .L H ` H o.@.@.@.@.O.@.O.O.O.O.@.j.) ` @.@.@.@.O.@.@.@.@.@.@.@.@.z.@.x.m ] [ ",
"[ _ W [ [ @.] ] O.@._ @.@.@.@.j.@.+.` V B >.I.A y 6.N M +.m | O.@.@.@.@.@.@.@.O.[ @.j.@.j.j.@.@.@.-.o.@.@.@.@.@.O.@.@.@.-.@.@.O.",
"[ [ [ @.@.@.@.V.(.E.e.O.@.@.O.[ [ &.%.V m X.%.V t 4.t m =.B | &.@.@.j.@.@.@.@.@.G.@.@.@.T.J.A.&._ o._ o.@.@.@.@.O.@.&.@.@.-.@.@.",
"@.@.@.@.@.@.^.].`.!.W.v.@.@.O.[ B @.=.m V X.o.E t 3.B B =.~ 5.x.@.@.z.@.@.@.@.@.-.x.@.).H.z.A.q.V E H @.@.) @.O.O.O.@.@.@.@.@.@.",
"S.Y.J.@.@.j.P.W._.Q.b.] O.@.O.@.E V =.V ` 5.) H 1 ) M m =.T 4.@.-.@.@.@.@.@.o.-.z.&.M.w.} &.L.,.W @.H @.@.E @.[ { O.O.O.@.@.@.j.",
"@.F.J.@.@.@.c.v.9.2.G [ { @.O.O.@.m =.V V 5.+.V 1 V V t H p O.-.z.@.j.@.O.O.H @.&.S.} x :.u.m.x } { F @.@.B O.o.O.O.{ Y O.@.@.@.",
"@.@.@.@.-.@.o.{ [ O.O.@.@.@.@.O.o.t _ m B 5.#.V t m ` ` B u @.z.@.@.@.@.O.O.J O.&.+.) [ $.G.-.] [ &.L L &.B O.o.@.O.@.O.O.@.@.@.",
"@.@.@.@.@.@.@.@.@.@.o._ @.@.@.O.O.V B b W 5.` E B H E L [ } @.-.S.@.l.@.O.O.[ [ ] } ) @.z.z._ ) O.@.U O.F B O.O.@.{ @.@.@.@.@.@.",
"@.z.@.@.@.@.@.@.H o.o.B { { @.[ _ [ B r O.@.o.) [ H H ) o.O.@.@.-.@.@.@.O.O.[ _ [ O._ @.@.O.[ [ O.H p m B p O.@.O.@.@.) _ ) @.@.",
"-.-.@.@.@.@.@.@.H ) @.o.V V @.V _ [ o.[ { O.@.o._ H ] @.l.[ @.@.@.@.@.j.@.@.@.O.@.O.[ O.@.` _ V H m p B @.B B @.@.O.@.o.O.V ) @.",
"-.@.@.@.@.o.) ) _ m o.o.n C ) ) O.O.O.O.{ O.@.O.{ ) _ &.l.} O.@.j.@.@.@.o.o.o.@.@.@.@.@.@.o.o.B ) H m m @.@.o.@.@.@.@.@.@.@.@.@.",
"@.@.@.@.o.H ) ) O.B V o.e H e M @.@.@.@.{ @.-.@.@.V { @.@.@.@.@.@.@.@.o.) V V @.@.@.@.@.O.O.@.@.@.@.@.@.@.@.@.@.V.@.@.@.@.@.s.@.",
"@.@.@.@.@.@.@.@.@.) B B ; i u F @.@.O.@.@.@.-.@.@.@.@.@.@.@.@.@.@.@.@.@.@.@.@.@.@.@.@.@.O.O.@.@.@.@.F.l.j.@.@.l.@.@.k.O.@.O.d.@."
};
