/* XPM */
static char *_c76c8f291704b1dd4974f718e6ec0caTax8UNGbAYFqvyp7[] = {
/* columns rows colors chars-per-pixel */
"64 64 236 2 ",
"   c #312F2D",
".  c #363426",
"X  c #3F3B26",
"o  c #36352C",
"O  c #38342A",
"+  c #3B392D",
"@  c #373636",
"#  c #3C3A33",
"$  c #3A3A3A",
"%  c #423C1C",
"&  c #413721",
"*  c #423C22",
"=  c #423E2C",
"-  c #413D31",
";  c #36541E",
":  c #3E5A2B",
">  c #3E6838",
",  c #584B16",
"<  c #5B5218",
"1  c #60541C",
"2  c #4D4424",
"3  c #46422B",
"4  c #4B442B",
"5  c #4E492C",
"6  c #524523",
"7  c #534A25",
"8  c #5A4F26",
"9  c #524B2D",
"0  c #435B2F",
"q  c #5C5425",
"w  c #57512E",
"e  c #5B522C",
"r  c #444233",
"t  c #4B4635",
"y  c #4E4B35",
"u  c #46443A",
"i  c #4A473B",
"p  c #4E493C",
"a  c #514B34",
"s  c #524D3B",
"d  c #5B5434",
"f  c #5D5834",
"g  c #5A543A",
"h  c #5E593C",
"j  c #615624",
"k  c #655A25",
"l  c #665B2B",
"z  c #695D2B",
"x  c #645B34",
"c  c #695E32",
"v  c #645A39",
"b  c #48692E",
"n  c #496938",
"m  c #4B743C",
"M  c #477D3F",
"N  c #54743D",
"B  c #58793B",
"V  c #6B612E",
"C  c #70662E",
"Z  c #73692F",
"A  c #6C6334",
"S  c #6B623C",
"D  c #6B643C",
"F  c #716535",
"G  c #726936",
"H  c #74673B",
"J  c #746B3B",
"K  c #796D3C",
"L  c #7B723E",
"P  c #444444",
"I  c #4B4B4B",
"U  c #524F40",
"Y  c #575445",
"T  c #525252",
"R  c #5E5B52",
"E  c #595959",
"W  c #635E4A",
"Q  c #625F52",
"!  c #58664E",
"~  c #4D7D42",
"^  c #4B7945",
"/  c #587745",
"(  c #547B43",
")  c #5B6852",
"_  c #6B6343",
"`  c #6A6547",
"'  c #756C43",
"]  c #796E45",
"[  c #736B4A",
"{  c #617F4A",
"}  c #777144",
"|  c #7D7442",
" . c #7D754A",
".. c #7E794A",
"X. c #6C6755",
"o. c #736D59",
"O. c #657959",
"+. c #7A7558",
"@. c #646464",
"#. c #686868",
"$. c #736F65",
"%. c #797865",
"&. c #737373",
"*. c #7B7B7B",
"=. c #807544",
"-. c #857A46",
";. c #81774A",
":. c #847B4B",
">. c #887E4B",
",. c #837C51",
"<. c #897E51",
"1. c #857D5D",
"2. c #817A63",
"3. c #4D8344",
"4. c #548246",
"5. c #578448",
"6. c #5B8549",
"7. c #5E894B",
"8. c #5D9253",
"9. c #62854B",
"0. c #6A854D",
"q. c #638C4D",
"w. c #6A8D4E",
"e. c #758D4B",
"r. c #6C934F",
"t. c #75954B",
"y. c #75944E",
"u. c #7B9D4E",
"i. c #668554",
"p. c #638B51",
"a. c #6C8D52",
"s. c #679151",
"d. c #6C9351",
"f. c #6D9A53",
"g. c #729553",
"h. c #749C53",
"j. c #7A9E51",
"k. c #769A5B",
"l. c #75A252",
"z. c #7BA452",
"x. c #78A655",
"c. c #7BAA53",
"v. c #7DAD5A",
"b. c #76B15B",
"n. c #7EB059",
"m. c #748C67",
"M. c #768669",
"N. c #689665",
"B. c #6B9B62",
"V. c #79A268",
"C. c #8C824C",
"Z. c #878053",
"A. c #8C8253",
"S. c #8C845A",
"D. c #8E895C",
"F. c #928655",
"G. c #948956",
"H. c #9D8F57",
"J. c #908659",
"K. c #948B5C",
"L. c #998E5A",
"P. c #9C915D",
"I. c #A6955A",
"U. c #80A753",
"Y. c #81A954",
"T. c #82AE5A",
"R. c #82AE5B",
"E. c #81B35D",
"W. c #8D8668",
"Q. c #948C62",
"!. c #998F63",
"~. c #988D6C",
"^. c #969062",
"/. c #9C9364",
"(. c #9B9469",
"). c #9C946D",
"_. c #9F996D",
"`. c #868876",
"'. c #8E8A74",
"]. c #948E75",
"[. c #928C7B",
"{. c #849A72",
"}. c #9B9372",
"|. c #989479",
" X c #9B947B",
".X c #A49665",
"XX c #A99A65",
"oX c #A29769",
"OX c #A59B6C",
"+X c #AB9E6C",
"@X c #A29B73",
"#X c #A59B77",
"$X c #A99F75",
"%X c #A39C7B",
"&X c #85AC65",
"*X c #85B261",
"=X c #88B567",
"-X c #88A775",
";X c #90B272",
":X c #AEA16C",
">X c #B2A26D",
",X c #ACA275",
"<X c #A7A07B",
"1X c #ACA47D",
"2X c #B4A574",
"3X c #B6A976",
"4X c #B6AA7A",
"5X c #828282",
"6X c #989686",
"7X c #939889",
"8X c #A39D85",
"9X c #A19D8A",
"0X c #A19F93",
"qX c #9AA78F",
"wX c #ACA484",
"eX c #A6A38F",
"rX c #AAA588",
"tX c #B4AB83",
"yX c #B4A986",
"uX c #BBAE83",
"iX c #B4AD8C",
"pX c #B7B085",
"aX c #BDB183",
"sX c #BDB38A",
"dX c #A8A596",
"fX c #B3AD97",
"gX c #B5B192",
"hX c #BDB492",
"jX c #BBB699",
"kX c #B8B5A3",
"lX c #C0B58C",
"zX c #C2B994",
"xX c #C4BB99",
"cX c #C2BEA1",
"vX c #C8C09C",
"bX c #CBC6A7",
/* pixels */
"c.c.c.c.c.c.c.c.c.c.d.d.{ g.d.c.c.c.z.c.c.z.z.z.c.c.c.c.c.c.c.c.c.c.c.c.c.c.c.c.z.c.n.E.z.z.z.c.z.z.c.*Xc.c.R.R.c.c.z.c.c.z.u.c.",
"c.c.c.c.z.c.c.c.c.c.c.c.c.c.c.c.c.c.c.c.c.z.z.E.c.c.c.c.c.c.l.h.c.c.c.c.c.c.z.z.z.z.c.c.z.z.z.z.z.z.z.c.c.R.z.c.z.c.z.c.z.z.z.c.",
"c.c.c.c.z.z.c.c.z.c.c.v.c.c.n.c.c.c.c.R.c.c.c.=Xc.c.c.c.c.c.d.q.c.c.l.z.c.c.z.z.z.c.c.z.z.z.z.z.z.z.z.c.u.j.j.c.c.j.h.z.z.c.c.c.",
"c.c.z.c.c.z.z.z.z.z.z.c.z.c.c.c.c.c.c.R.R.c.c.c.c.c.c.c.c.c.q.4.c.c.s.g.c.c.z.c.c.c.c.z.z.z.z.z.z.z.z.z.j.z.z.z.h.j.c.z.s.q.6.c.",
"c.c.z.c.c.c.z.z.z.u.z.z.z.n.E.c.R.c.c.c.l.h.c.c.h.z.c.c.c.c.7.4.c.c.7.c.z.z.U.*Xc.z.c.z.z.z.z.z.z.z.z.z.z.c.c.j.h.z.z.c.c.c.l.c.",
"c.c.c.c.R.c.c.c.z.c.c.c.z.v.v.c.c.c.c.j.l.c.c.c.r.z.c.z.c.c.j.3.s.j.q.c.z.z.c.c.z.j.c.c.z.z.z.R.R.R.U.z.z.z.z.z.z.z.c.c.c.c.c.c.",
"c.c.c.c.*Xc.c.c.c.c.c.c.c.=Xc.c.c.c.z.h.f.z.c.h.g.z.z.z.c.c.c.6.l.c.c.c.c.z.U.j.u.j.c.z.u.z.z.z.U.j.j.B R.u.z.z.z.z.c.c.c.c.c.c.",
"c.c.c.*X*Xc.c.c.c.R.*Xc.l.x.c.c.c.c.c.l.h.u.z.d.w.z.c.z.c.c.c.c.c.c.c.c.R.c.c.c.t.h.w.u.u.c.h.w.g.j.g.0.z.g.z.z.z.E.=Xc.c.z.l.l.",
"c.c.c.R.c.l.h.h.c.*Xc.E.v.l.c.c.c.c.c.c.c.z.z.d.q.c.z.z.c.c.c.*Xc.c.c.z.h.z.c.j.u.d.h.c.z.h.l.9.a.j.h.w.9.h.j.z.c.=Xz.c.c.z.h.h.",
"c.c.c.*Xc.z.k.g.z.c.c.c.x.R.c.c.c.c.c.z.c.c.z.r.q.c.c.c.c.c.R.R.c.z.z.z.s.z.c.z.j.q.c.c.B g.h.( / g.r.9.m d.j.h.z.c.z.c.c.c.z.z.",
"c.l.l.c.c.z.j.k.z.c.c.c.c.{.qX7Xa.c.c.z.z.c.c.c.c.c.c.c.c.R.R.c.c.z.u.z.r.z.j.c.h.q.j.z.y.g.( w.m g.w.m d.z.q.z.z.z.c.c.c.c.c.c.",
"c.h.g.c.c.z.c.c.E.R.c.c.{.dX0X7X7XM.9.g.c.c.c.c.c.c.c.c.c.c.c.c.c.c.u.u.r.z.z.z.g.r.g.u.z.z.( 6.5.q.q.^ j.r.j.z.z.c.R.c.c.c.l.l.",
"c.l.l.c.s.s.z.c.c.R.c.O.) %.M.M.`.M./ k.g.g.R.R.c.c.l.h.c.j.c.c.c.c.c.z.j.c.c.z.e.u.y.y.z.R.z.9.N 5.~ ^ w.d.z.z.z.z.R.c.c.z.h.h.",
"c.c.c.c.s.s.z.c.c.c.g.a.! ) ! ) ) ) i.g.d.h.*XR.c.c.s.s.c.7.d.c.c.c.c.z.j.c.c.z.y.j.w.y.j.z.h.w./ > m m / j.c.c.z.c.z.R.z.c.z.z.",
"c.c.c.c.l.7.z.z.c.c.c.c.h.g.i.i.9./ 9.a.a.d.c.z.c.c.c.&.&.&.&.&.&.&.&.&.z.z.l.z.t.u.w.j.u.z.j.y.w.: n / a.h.z.z.z.c.c.z.c.c.c.c.",
"c.R.c.c.l.7.z.c.c.c.c.R.R.c.v.c.c.R.c.j.l.j.z.c.c.&.&.&.&.&.&.&.&.&.&.&.&.&.j.z.u.u.w.j.j.z.l.g.w.0.w.h.j.h.z.z.z.z.c.c.c.c.c.*X",
"R.R.c.c.c.c.c.c.c.c.c.R.R.R.R.c.c.c.z.c.c.c.c.&.&.&.&.&.eXeXX.p Y 6XeX&.&.&.&.&.j.y.a.j.u.z.z.z.z.z.c.c.z.z.c.c.z.z.z.c.l.l.l.*X",
"c.R.c.c.c.c.c.c.c.c.c.c.n.c.Y.c.c.z.u.z.R.#.#.#.#.#.jX9X X8XW a s %X].}.6X#.#.#.#.#.y.u.Y.z.c.z.z.c.c.l.c.E.;X*Xl.z.j.l.l.x.f.c.",
"c.c.c.z.c.c.z.c.c.c.c.@.@.@.@.@.@.@.@.@.#.#.#.#.6X9XrX X1XhX[ y g sXaXtX$X'.6X#.#.#.#.@.@.@.@.@.@.@.@.@.n.-X-XV.f.l.r.s.f.q.7.c.",
"c.c.c.z.c.z.z.z.z.c.@.@.@.@.@.@.@.@.@.@.@.#.U yXwX%XtXtX2XpX_ 3 a zXhXsXaXtX%XrX6X@.@.@.@.@.@.@.@.@.@.@.@.V.V.8.p.k.r.q.f.q.l.c.",
"c.c.c.c.c.c.c.z.h.c.@.@.0XeXkXdXfXeXjXeXY i t tXsXtX4X3X:XtXc % 7 aXzXsXsXzXlXxXyX2.i u 2.[.8X6X9X0X0X@.E N.-X8.^ N.4.5.l.4.k.z.",
"c.c.R.c.c.c.c.c.*XE E E [.iXjXgXhXyXxXW.r r ,.uXtX4X+XI.I.2XF 2 7 3XaX3X>XtXzXvXlXtXs r h iXgXyXjXcX9XE E E b.7.~ N.~ 5.b.6.k.v.",
"c.c.R.c.c.c.c.c.E E E eXiXzXsXxXlXuXaX_ 3 & oX4X>X+XI.I.I.3Xc 2 x aX3X>X3X3X>XuXuXuX;.= y #XyXtXiXiXrX6XE E E p.~ N.6.6.b.p.B.E.",
"n.c.c.c.c.c.l.n.E E gXdXxXsXpXzXuX3X4X4 & 3 2XXXI.I.I.XX+XtXc 4 v zX4X>X3XlX4X>X3X2XL.* X a 1X1X,XtXgXdXdXE E p.~ s.6.5.b.i.N.c.",
"E.c.R.c.z.z.q.E E E 9X1X,X2X4XsXtX3X<.= = v +X>XXX>X3XuX>X3X8 2 v aXsXsXsXsXhXsXzXuX3Xv X = 1X,XOXiXhXcXkXE E T M 7.7.~ q.( z.n.",
"c.c.c.c.z.z.-XE E 9XwX,X.X.X.X2XuXsX[ 4 4 .X.XXX:X4X3XaXuXaXH 5 v aXaXsXzXsXlXzXzXhXyX[ i r $X,X1XtX1XbXbXkXE E ~ 4.f.h.6./ c.E.",
"*Xc.R.c.z.z.h.T T 6X].%.W.'.'.`.].'.p u Y S.<.:.<.S.~.~.~.).f 5 g wXyX}. X X<X%X%X X#X+.p i o.W.'.].].6XeXdXT T 6.q.p.r.h.g.c.n.",
"n.c.c.c.z.z.h.T T T T E E E E E E E E E E E E E E E E E E E E E E E E E E E E E E E E E E E E E E E E E T T T T h.w.9.d.l.z.c.c.",
"c.c.c.R.c.c.c.T T $.o.o.o.1.X.X.%.U u i +.[ [ v H S _ ` 2.o.Y p s X.o.X.+.X.X.W X.X.o.p - r h W X.Y ` W o.%.T T d.q.g.c.R.h.c.c.",
"R.c.c.c.l.l.l.T T 6X X).~.).W.}.).X.i p #XL.J.J.F.P.K.Q.'.E @.#.#.@.`.'.@XQ.Q.S.!.S.Q.h t t _  . .[ :. .Q.W.T T j.s.d.v.R.g.z.c.",
"c.c.c.l.s.7.7.T T eXrXtX$X/.<XhXgXQ i Y tXoX.X.XI.H.I. XT @.&.&.&.#.E  X1X$XoXoX+X:X+X[ a 4 ' G.F.F.G./.OX}.T T c.7.j.c.c.c.c.c.",
"c.c.c.c.c.c.c.I T rXrX$X/.oXyX<X@X+.Y Y 1X$X.XH.H..XOX XT @.*.5X5X&.E  XoX!.G.H..XI..X;.d y | C.F.L.L.G./. XI I c.c.c.c.c.c.c.c.",
"c.c.c.c.c.c.c.I I 6X6X6X X XrX8X].2.R %. X~.!.~.1.}.].0XE @.&.5X*.&.E 6X6X X).).).}.~._ a g ,.1.1.W.Q.W.'.6XI I c.c.c.c.c.c.c.c.",
"c.c.c.c.c.c.z.I I I I I I I T T T T T T T T T T T T T T E @.&.*.&.#.E T T T T T T T T T T T T T I I I I I I I I c.c.c.c.c.c.l.l.",
"c.c.l.z.c.c.z.I I I I I I I I I T T T T T T T T T T T T E @.&.&.&.@.E T T T T T T T T T T T I I I I I I I I I I c.c.c.c.c.c.h.l.",
"c.c.s.g.c.c.z.I I I } D <.H  .' H A A G 4 + 3 V =. .A G E @.@.@.@.@.E c j k C | r o e H z C k F V F A J  .I I I c.c.c.c.c.c.f.l.",
"c.c.7.c.z.z.U.*XI I Z. . . .| ] ;.G | V - o 3 k l c l V z E E E E E z j , k H L + o d -.K -.L =.F.:.| :. .I I c.h.z.c.c.c.c.d.l.",
"s.j.q.c.z.z.c.c.P P (.oX!.K.K.K.L.L./.A.h r _ G./.| A.=.F T T T T T J -.C G P.oX_ - [ /.OXA.OX/.oX$X$X1X@XP P c.r.z.c.z.c.c.z.l.",
"l.c.c.c.c.z.U.j.P P J.:.A.J :.| K =././.r o S >.| z K , k , I I I , 1 J k z >.-.5 + 4 ] =.;.| L H :.:./.D.P P h.g.z.z.z.c.c.c.j.",
"c.c.c.c.R.c.c.c.P P A l >.H H F V V l F 4 O 9 H H C < < < k < , , , < z F 1 1 V 9 o o l C C k L k :.G J c P P d.w.z.c.z.c.c.c.c.",
"c.c.c.z.h.z.c.j.P P Z.:.A.;.:.L | =.H | - + d K | J G C H H z , < , z J J F.F | a - r | -.;.:.A.A.#X!.Q.(.P P d.q.c.z.z.c.c.c.*X",
"c.z.z.z.s.z.c.z.P P P.J.A.!.>.>.:.A.>.A.f + a <.A.| =.| G C V < < V G.A.A.F.F.G.] # a A.G.G.oX/./.OX/.@X@XP P r.q.c.c.c.c.c.R.R.",
"c.z.u.z.r.j.j.c.P P D f f 9 2 4 6 d 7 5 O @ X 2 7 7 6 9 e 6 6 2 9 6 _ x v D d D g @ o S S h a g S v a h _ P P c.c.c.c.c.c.R.R.c.",
"c.c.u.u.r.z.z.z.P P X 3 O 4 O O * X 3 O O @ . O * X & + 4 X * . * O o 9 4 5 X 5 = @   g 3 a r d t g r _ t P P c.c.c.c.c.c.c.c.c.",
"c.c.c.z.j.c.c.z.P P a _ f S 9 d e w x d + @ 9 f c e x f l e q 2 , 3 3 F x x e ] 3 o - l x A J J } <..._.+.P P R.c.c.l.h.c.j.c.c.",
"c.c.c.z.j.c.c.z.I I !.(.K.=.A.J.A.A.<.A.g # _ -.-.=.:.| -.L F C k Z | -.<.F.A.G.S @ r G.L.K.K./._._._.%X%XI I R.c.c.s.s.c.7.d.c.",
"c.c.c.c.z.z.l.z.I I ..S. .H ] | c H H F + + a | H =.k c | z G J j | H F C.A.-.:.h # - | A.:.A.Z.K.K.D.(.Q.I I z.c.c.c.6.c.5.5.c.",
"z.z.c.c.z.z.j.z.P P J G :.z A c A V k z X o 2 H H k q k , < k V k V j H 1 l k F 5 o X A | J } J  .} ,.,.,.P P c.c.c.c.q.p.l.M c.",
"g.g.N a.N b / z.P P S.} | | | D A | l F + @ w :.C c K F F j j < F z F K z c V F e + = A J J :.G J J D.,.Q.P P c.n.c.c.z.3.s.~ c.",
"g.B / a.B m / N I I @XS.S.A.J.A.F.K.J.F.y @ h :.| ] >.:.| | A.A.A.J.A.A.F.!.>.;.W # t A.K.;.^.K.S.S.Q.).).I I c.c.c.c.z.5.q.c.g.",
"; 0 n N g.N N b P P S.Z.Z.G G :.] J J J - + w A G H H z =.F J H :.-.:. .H F ;.A.S - t J :.' ;.D.Z.Z.' !. .P P R.c.c.n.c.s.M 9.j.",
"B : ; 0 / b : 0 P P J G J A q q q q A q O o 7 q c l < < A z < , q l H A  .V H l a o r J H } J ' ' ..}  ...P P c.c.c.E.c.E.5.g.h.",
"h.d.a.h.h.c.g.g.P P Z.D.} :.J J J H D J X o w F J =.G H A z | j z J :.J :.J :.H v - r .... .Z.;.,.S.S.S.Q.P P c.z.c.c.c.n.c.c.z.",
"h.h.h.c.c.c.c.&XP P @X_._.^.(.Q.^.^.D.^.i o h A.Z./.Z.A.J.:.;.J.S._.K.Q.(.!.S.K.[ # r Q.(.).@X@X@X<X<X1X<XP P c.z.c.v.c.c.n.c.c.",
"c.c.c.c.c.c.qXdX$ $ $ $ $ $ $ $ $ $ $ $ $ $ $ $ $ $ $ $ $ $ $ $ $ $ $ $ $ $ $ $ $ $ $ $ $ $ $ $ $ $ $ $ $ $ $ z.z.z.c.c.c.c.c.c.",
"*X;X=Xc.c.R.-X7X@ @ @ @ @ @ @ @ @ @ @ @ @ @ @ @ @ @ @ @ $ @ $ $ $ @ $ @ @ @ @ @ @ @ @ @ @ @ @ @ @ @ @ @ @ @ @ h.j.z.z.z.c.c.c.R.",
"c.=X=Xc.c.c.{.{.k.M.0.h.j.c.z.z.c.4.b.7.7.B.x.7.M 7.7.~ q.( z.n.E.c.R.c.z.z.q.c.v.*Xg.O.m.V.{.O.g.j.9.c.c.6.z.l.z.z.j.u.z.c.c.c.",
"c.c.c.c.n.c.l.j.h.z.z.c.z.c.c.z.l.~ d.5.6.B.l.7.~ 4.f.f.6./ c.E.c.c.c.c.z.z.w.z.v.x.s.h.x.*Xn.g.h.v.r.r.v.7.z.l.c.z.c.z.z.c.c.c.",
"c.c.c.c.c.c.c.c.c.c.l.d.c.c.c.z.z.7.6.3.a.B.f.p.6.q.p.r.h.g.c.n.*Xc.R.c.z.z.h.h.g.g.s.c.E.E.d.s.z.c.h.z.9.6.z.z.c.j.c.c.c.c.c.c.",
"c.E.c.c.c.c.c.c.q.l.l.6.j.j.c.h.d.h.7.~ z.c.l.s.h.p.7.s.l.z.c.c.n.c.c.c.z.z.h.d.h.z.d.c.c.z.h.h.z.q.( 5.6.( z.c.z.c.c.s.d.s.c.c.",
"n.n.c.c.c.c.c.c.p.s.c.l.7.7.c.7.d.h.l.h.j.z.c.l.d.q.g.c.R.h.c.c.c.c.c.R.c.c.c.z.c.z.h.z.c.f.d.7.p.5.( 6.c.6.5.c.c.z.c.l.z.7.s.c.",
"n.c.c.c.c.l.s.s.d.4.l.l.3.8.s.s.z.z.z.z.j.z.c.z.j.s.d.v.R.g.z.c.R.c.c.c.l.l.l.c.c.c.c.c.c.l.l.7.s.q.5.5.c.c.l.c.c.c.c.c.c.c.c.c.",
"c.c.c.c.x.q.s.s.z.6.7.l.^ q.^ 5.c.c.c.c.j.c.n.c.c.7.j.c.c.c.c.c.c.c.c.l.s.7.7.c.c.c.c.c.z.z.c.c.c.c.c.c.c.c.c.c.&Xc.c.c.c.c.U.c.",
"c.c.c.c.c.c.c.c.c.s.6.6.n / / 9.c.c.z.c.c.c.n.c.c.c.c.c.c.c.c.c.c.c.c.c.c.c.c.c.c.c.c.c.z.z.c.c.c.c.=XR.R.c.c.R.c.c.R.z.c.z.Y.c."
};
