/* XPM */
static char *e1ce10a866b24144cb676ad444c90538O4Dz81y5ZWOBwtI0[] = {
/* columns rows colors chars-per-pixel */
"64 64 204 2 ",
"   c gray9",
".  c #1F251B",
"X  c #20271B",
"o  c #29351F",
"O  c #2C3B22",
"+  c #2A2B35",
"@  c #353F38",
"#  c #432E27",
"$  c #453429",
"%  c #46392A",
"&  c #483E2B",
"*  c #36541E",
"=  c #354626",
"-  c #374927",
";  c #35432B",
":  c #3E552C",
">  c #3A5928",
",  c #394539",
"<  c #3E5832",
"1  c #3E6838",
"2  c #4B462E",
"3  c #4C4C2F",
"4  c #42532E",
"5  c #425C2D",
"6  c #4D4D31",
"7  c #4E5332",
"8  c #455738",
"9  c #515433",
"0  c #535C35",
"q  c #555B38",
"w  c #6A4834",
"e  c #675437",
"r  c #6A5237",
"t  c #6A5638",
"y  c #6C5B3A",
"u  c #44602B",
"i  c #48662E",
"p  c #4E6D2F",
"a  c #4E752F",
"s  c #4B6533",
"d  c #4C6A34",
"f  c #466639",
"g  c #4B633D",
"h  c #4C6A3A",
"j  c #566136",
"k  c #586737",
"l  c #566F36",
"z  c #596539",
"x  c #526D3B",
"c  c #5B6C3A",
"v  c #4A733E",
"b  c #477D3F",
"n  c #547435",
"m  c #597635",
"M  c #55743C",
"N  c #5C733C",
"B  c #597938",
"V  c #5B7B3E",
"C  c #6A673C",
"Z  c #4A4B49",
"A  c #4B6741",
"S  c #596F43",
"D  c #57674B",
"F  c #58654F",
"G  c #4D7D42",
"H  c #4C7947",
"J  c #547343",
"K  c #597542",
"L  c #537B44",
"P  c #5D7C44",
"I  c #5C7448",
"U  c #5D7B49",
"Y  c #596651",
"T  c #5D6B53",
"R  c #617D44",
"E  c #617E4B",
"W  c #6D7B48",
"Q  c #627255",
"!  c #687F54",
"~  c #677B5B",
"^  c #6B7B5E",
"/  c #727F69",
"(  c #882E2E",
")  c #88332F",
"_  c #873330",
"`  c #C43C3C",
"'  c #488742",
"]  c #4E8145",
"[  c #548246",
"{  c #5A8447",
"}  c #538349",
"|  c #5B854A",
" . c #5E894B",
".. c #5A994B",
"X. c #5E8755",
"o. c #5B9054",
"O. c #5F9957",
"+. c #638544",
"@. c #6B8145",
"#. c #648946",
"$. c #698A45",
"%. c #63844B",
"&. c #69864B",
"*. c #648B4C",
"=. c #6A8D4D",
"-. c #738747",
";. c #6A9246",
":. c #67914E",
">. c #6C934D",
",. c #6F9A4D",
"<. c #789147",
"1. c #74944D",
"2. c #79964D",
"3. c #749C4D",
"4. c #7B9D4E",
"5. c #628251",
"6. c #6A8552",
"7. c #648C52",
"8. c #6C8D52",
"9. c #6E865A",
"0. c #608A5A",
"q. c #6E885B",
"w. c #718B55",
"e. c #679151",
"r. c #6C9352",
"t. c #6E9A52",
"y. c #6F9D5E",
"u. c #729553",
"i. c #749C52",
"p. c #7A9E51",
"a. c #72935A",
"s. c #729D5D",
"d. c #7A9E5B",
"f. c #75A24E",
"g. c #7BA24F",
"h. c #6DA15A",
"j. c #75A252",
"k. c #7BA452",
"l. c #75AA55",
"z. c #7BAA52",
"x. c #7DAA55",
"c. c #7DAC54",
"v. c #7FAD57",
"b. c #7DAE56",
"n. c #7AA258",
"m. c #74A85C",
"M. c #7DAD5A",
"N. c #7EB056",
"B. c #74B25B",
"V. c #7EB059",
"C. c #6E8461",
"Z. c #6C8D63",
"A. c #738565",
"S. c #748765",
"D. c #798C6A",
"F. c #639660",
"G. c #6B9667",
"H. c #6B9B62",
"J. c #6E9868",
"K. c #7C9462",
"L. c #769468",
"P. c #7B916B",
"I. c #7F8A76",
"U. c #71A565",
"Y. c #79A064",
"T. c #7BA26C",
"R. c #80A753",
"E. c #81A954",
"W. c #82AD5B",
"Q. c #83AE5D",
"!. c #81B25D",
"~. c #82B35D",
"^. c #829C68",
"/. c #858E7C",
"(. c #849876",
"). c #879A79",
"_. c #84AC62",
"`. c #83A368",
"'. c #85A96F",
"]. c #8AAD6B",
"[. c #86B061",
"{. c #85B362",
"}. c #89B165",
"|. c #86BA65",
" X c #8BB26C",
".X c #90B46C",
"XX c #86A973",
"oX c #91B179",
"OX c #6A788F",
"+X c #65659B",
"@X c #666999",
"#X c #687194",
"$X c #8C9782",
"%X c #909B86",
"&X c #939B8A",
"*X c #999E94",
"=X c #99AA88",
"-X c #94B080",
";X c #9BA492",
":X c #9FA39B",
">X c #BFA787",
",X c #A2A79D",
"<X c #E8D4B2",
"1X c #F8F8F8",
/* pixels */
"c.z.z.z.z.z.z.z.z.z.r.r.E a.r.z.z.z.k.z.z.k.k.k.z.z.z.z.z.z.z.z.z.z.z.z.z.z.z.z.k.c.N.!.k.k.k.z.k.k.c.[.z.z.Q.Q.c.c.k.z.z.k.4.z.",
"c.z.z.z.k.z.z.z.z.z.z.z.z.z.z.z.z.z.z.z.z.k.k.!.z.z.z.z.z.z.j.i.z.z.z.z.z.z.k.k.k.k.z.z.k.k.k.k.k.k.k.z.z.Q.k.c.k.c.k.z.k.k.k.z.",
"c.c.c.z.k.k.z.z.k.z.z.M.z.c.V.z.z.c.c.Q.z.z.z.|.z.z.z.z.z.z.r.*.z.z.j.k.c.z.k.k.k.z.c.k.k.k.k.k.k.k.k.z.4.p.p.z.z.p.i.k.k.z.z.z.",
"z.z.k.z.z.k.k.k.k.k.k.z.k.z.z.z.z.z.z.W.Q.z.z.z.z.z.z.z.z.z.*.[ z.z.e.i.c.c.k.c.z.z.c.k.k.k.k.k.k.k.k.k.k.k.k.k.i.p.z.k.e.*.| z.",
"c.z.k.z.z.z.k.k.k.4.k.k.k.V.!.z.W.z.z.z.j.i.z.z.i.k.z.z.z.z. .[ z.z. .z.k.k.R.[.c.k.c.k.k.k.k.k.k.k.k.k.k.z.z.p.i.k.k.z.z.z.j.z.",
"c.c.c.z.Q.c.z.z.k.z.z.z.k.M.M.z.z.z.z.p.j.z.z.z.>.k.z.k.z.z.p.] e.p.*.z.k.k.c.c.k.p.z.c.k.k.k.W.W.W.R.k.k.k.k.k.k.k.z.z.l.z.z.c.",
"z.c.c.z.}.c.z.z.z.c.c.z.z.|.z.z.z.z.k.i.t.k.z.i.u.k.k.k.z.z.z.| j.z.z.z.z.k.R.p.2.p.z.k.4.k.k.k.R.p.d.V W.4.k.k.k.k.c.c.l.z.z.c.",
"z.z.c._.[.z.z.z.z.Q.[.z.j.j.z.z.c.z.z.j.i.4.k.r.=.k.z.k.z.z.z.z.z.z.z.z.W.c.z.z.<.i.=.4.4.z.i.=.u.p.u.&.n.u.k.k.k.!.|.z.z.k.k.k.",
"z.z.z.W.c.k.i.i.z.[.z.!.c.j.z.z.c.z.z.z.z.k.k.r.*.z.k.k.z.c.c.[.c.z.z.k.i.k.z.p.4.r.i.z.k.i.j.*.8.i.i.=.*.i.p.k.l.|.k.z.z.k.i.i.",
"z.z.z.[.z.k.a.a.k.z.z.c.j.W.c.z.z.z.z.k.z.z.k.>.*.z.z.z.c.c.Q.W.z.k.k.k.e.k.c.k.p.*.z.c.B u.i.L P u.>.%.v r.i.i.k.z.k.k.z.z.k.k.",
"z.k.p.z.z.k.p.a.k.z.z.z.c.).;X%X8.z.z.k.k.z.z.z.c.z.z.z.c.W.Q.z.z.k.2.3.>.p.p.z.i.*.p.k.1.u.L *.v u.&.v r.k.*.k.k.k.c.z.z.z.z.z.",
"z.i.a.z.z.k.z.c.!.W.c.z.).,X:X&X$XD.%.a.z.z.c.z.z.z.z.z.c.c.z.z.g.$.N C R k.k.k.u.>.u.4.k.k.L | [ *.*.G p.>.p.k.k.z.Q.z.z.z.k.k.",
"z.k.k.z.e.e.k.z.c.W.c.Q T / I.A./.A.U d.a.u.Q.W.c.z.t.>.3.>.3.3.>.j $ % c 3.3.1.@.1.1.2.n.W.k.%.M { G G =.r.k.k.k.k.Q.z.z.k.i.i.",
"z.z.z.z.e.e.k.z.z.z.a.8.F Y D T Y T 5.a.=.i._.W.c.f.S 0 k 7 0 k 0 r w w t j z j 4 N &.2.p.k.i.&.L 1 v h U p.z.z.k.z.k.W.k.z.k.k.",
"c.c.z.z.j. .k.k.z.z.z.c.i.a.6.6.R K %.8.8.r.f.>.>.$.0 # # # # # # w w w # # # # # 9 x >.2.k.p.1.&.< f J 8.i.k.k.k.z.z.k.z.z.z.z.",
"c.Q.z.z.j. .k.z.c.c.z.W.W.c.c.c.c.W.c.p.p.p.$.0 7 3 r w w w w w w # # # # w w w w % 6 V 2.k.j.u.&.&.=.i.p.i.z.k.k.k.z.z.z.z.z.}.",
"W.W.z.z.z.z.z.z.c.z.c.W.W.Q.W.z.z.z.k.z.j.$.c % w w w w w w w w w w # # w w w w # 2 k #.2.k.k.k.k.k.z.z.k.k.z.z.k.k.k.z.j.j.j.[.",
"c.Q.z.z.z.c.z.z.c.z.z.z.V.z.E.z.z.k.4.k.i.z $ w w w w w w w w w w w w w w w w # # 4 R 2.E.k.z.k.k.z.z.j.c.!. X_.j.k.p.j.i.l.t.z.",
"z.z.z.k.z.c.k.z.c.z.z.z.V.z.k.z.k.k.4.k.1.q # w w w w # # # # # # # w w w w w w # , s $.k.c.z.k.k.c.j.j.V.XX'.Y.t.j.>.>.t.*. .z.",
"z.z.z.k.z.k.k.k.k.z.W.e.t.z.z.z.z.k.k.f.$.7 # w w w w w w w w w w w w w w w w w # # . d >.k.c.c.k.j.i.t.J.T.U.O.X.d.:.*.t.*.j.c.",
"z.z.z.z.z.c.z.k.i.z.W.z.W.W.z.z.c.V.3.R 0 r w # # w >X>X>X>X>X>X>X>X>Xw # # # # # # # 2 s ;.c.W.z.l.t. .| Z.'.o.H J.} { l.[ s.k.",
"z.c.W.z.z.c.z.z.[.z.z.z.oX X].M.r.j.=.c # w w w w >X>X>X>X>X>X>X>X>X>X>Xw w w # # # # # o +.k.i.i.M.l.*.[ h.B. .G G.G [ B.| s.M.",
"c.c.W.z.z.c.z.z.V.!.c.-X|.!.].L. .*.=.c # # w >X>X>X<X<X<X<X<X<X<X<X<X>X>X>Xw w # # # # = +.k.i.| c.V.|  .h.m.7.G F.| | B.0.H.!.",
"V.z.z.z.z.z.j.V.V.M.).P.a.M.`.S.8.z.=.c # # w >X>X>X>X>X<X<X<X<X<X<X<X>X>X>X>Xw w   $ : V ,.k.z.7.t.c.7.t.y.t.7.b e.{ [ B.5.G.z.",
"!.c.W.z.k.k.*.z.l.M.a.~ q.H.`.9.a.k.=.d # w >X>X<X<X>X+X<X<X<X<X<X<X>Xw >X<X<X>Xw # . x 1.k.k.k.c.7.V.e. .s.l.7.b  . .G *.L k.V.",
"c.z.c.z.k.k.=.k.l.j.e.i.k.M.c.i.i.c.>.s w >X>X<X<X<X+X+X<X<X<X<X<X<X>Xw >X<X<X<X>Xw $ n j.z.z.k.j.7.l.e.*.H.j.*.G [ t.i.| J c.!.",
"[.c.Q.z.k.k.i.i.i.i.e.k.M.c.p.p.k.z.3.V C >X>X>X<X<X>X>X<X<X<X<X<X<X>X>X>X<X<X>X>X>XC J f.z.z.k.k.t.t.7.e.y.t.e.| *.7.>.i.a.c.V.",
"V.z.z.z.k.k.i.r.p.k.r.z.c.k.k.j.k.*.L L c e w +X>X<X<X<X<X<X<X<X<X<X<X<X<X<X>Xw w C $.L i.p.z.i.r.k.i.7.k.l.m.r.i.*.*.r.k.k.z.c.",
"z.z.z.W.c.z.z.k.z.k.i.k.z.r.e. .*.[ G v -.r w w >X>X<X<X<X<X<X<X<X<X<X<X<X>X>Xw w y +.:. . .z. .r.k.j.i.p.k.l.j.r.*.u.c.Q.i.c.z.",
"W.c.z.z.j.j.j.z.z.z.z.c.k.j.j.| e.*.G > r >X>X>X+Xw >X<X<X<X<X<X<X<X<X<X>Xw >X>X>X>Xt M ' ..e.e.k.k.k.k.p.k.c.k.p.e.r.x.Q.a.k.z.",
"z.z.z.j.e. . .z.z.z.z.z.k.k.z.z.z.z.3.s w >X<X>Xw w >X<X<X<X<X<X<X<X<X<X>Xw >X>X<X>Xw d v *.G { z.z.z.z.p.z.V.z.z. .p.c.l.z.z.z.",
"z.z.z.z.z.z.z.z.z.c.c.z.k.k.z.z.z.z._.! y >X>X>Xw w >X<X<X<X<X<X<X<X<X<X>Xw >X>X>X>Xt s f J J %.z.z.k.z.z.c.V.c.z.z.z.z.z.z.z.z.",
"z.z.z.z.z.z.z.z.k.c.N.!.k.k.k.z.k.k.k.n.-.#X>X` ` ` w >X>X<X<X<X<X<X>X>Xw ` ` ` >XOXW *.E a.r.z.z.z.k.z.z.4.k.k.z.z.z.z.z.z.z.z.",
"z.z.z.z.z.z.k.k.k.k.z.z.k.k.k.k.k.k.k.z.;.Z ( ` ` ` ( w >X>X>X<X>X>X>X( ( ` ` ( # u 3.z.z.z.z.z.z.z.z.z.z.k.k.!.z.z.z.z.z.z.j.j.",
"z.z.j.k.c.z.k.k.k.z.c.k.k.k.k.k.k.k.k.z.;.; # ( ` ` ` ` ` ` ` ` ` ` ` ` ` ` ` ( $ s 3.M.z.c.V.z.z.c.c.Q.z.z.z.|.z.z.z.z.z.z.i.j.",
"z.z.e.i.c.c.k.c.z.z.c.k.k.k.k.k.k.k.k.k.3.P 9 _ ( ` ` ` ` ` ` ` ` ` ` ` ` ` ( & z +.3.z.k.z.z.z.z.z.z.W.Q.z.z.z.z.z.z.z.z.z.t.j.",
"z.z. .z.k.k.R.[.c.k.c.k.k.k.k.k.k.k.k.k.k.f.+.6 ) ( ` ` ` ` ` ` ` ` ` ` ` ) % 5 $.4.p.k.k.N.!.z.W.z.z.z.j.i.z.z.i.k.z.z.z.z.r.j.",
"e.p.*.z.k.k.c.c.k.p.z.c.k.k.k.W.W.W.R.k.k.k.3.+.j $ ( ( ( >X<X<X<X>X( ( ( & c $.3.z.z.z.k.M.M.z.z.z.z.p.j.z.z.z.>.k.z.k.z.z.k.j.",
"j.z.z.z.z.k.R.p.2.p.z.k.4.p.k.k.E.w.K.V W.4.k.3.M X # # w >X<X1X<X>X# # # O +.z.z.c.c.z.z.|.z.z.z.z.k.i.t.k.z.i.u.k.k.k.z.z.z.p.",
"z.z.z.z.W.c.z.z.<.i.=.4.4.k.V m R 6.%.P K.w.k.k.M % w ( ( w >X>X>Xw ( ( # O +.z.z.Q.[.z.j.j.z.z.c.z.z.j.i.4.k.r.=.k.z.k.z.z.z.z.",
"c.z.z.k.i.k.z.p.4.r.i.z.k.+.&.R R R n p S K 1.*.A @X+Xw w w ( ( ( w w w +X@XA &.f.[.z.!.c.j.z.z.c.z.z.z.z.k.k.r.*.z.k.k.z.c.c.[.",
"z.k.k.k.e.k.c.k.p.*.z.c.m l m h h x i 5 : 5 R 8 @X+X+X+X+X+X$ . $ +X+X+X+X+X@X8 ;.z.z.c.j.W.c.z.z.z.z.k.z.z.k.>.*.z.z.z.l.c.Q.W.",
"z.k.2.k.>.p.p.z.i.*.p.k.1.l u s 5 p u K w.i.V @ +X+X+X+X+X, g s g , +X+X+X+X+ ; =.z.z.z.c.).).D.*.z.z.k.k.z.z.z.c.z.z.z.c.W.Q.z.",
"z.z.4.2.>.k.k.k.u.1.u.4.k.g.+.&.%.i.u.=.k.>.P = $ w w w @ g P %.P 8 % w w w $ 5 u.W.c.z.(.).C.C.P.S.%.a.z.z.c.z.z.z.z.z.c.c.z.z.",
"z.z.z.k.p.z.z.k.<.2.2.2.n.W.1.#.&.*.*.8.=.%.#.J 9 # # 2 s V E %.+.M j & # $ 0 P >.k.z.Q T Q ^ ~ C.^ U d.a.u.Q.W.c.z.j.i.z.p.z.z.",
"z.z.z.k.p.z.z.k.2.p.=.2.p.k.>.+.&.P *.*.%.=.=.+.s - = s P *.&.&.*.*.P : O ; J *.:.,.u.8.F Y D T Y T 5.r.=.i._.W.c.z.e.e.c. .r.z.",
"z.z.z.z.k.k.j.k.1.4.=.p.4.k.p.1.r.P %.%.8.1.>.&.R P P P #.*.*.*.*.=.+.P J A R &.3.k.z.c.i.a.6.6.R K %.8.8.r.z.k.z.z.z.| z.[ [ z.",
"k.k.z.z.k.j.i.k.2.2.*.p.p.k.j.u.=.=.u.p.p.i.j.>.1.>.=.#.#.#.*.8.*.8.*.*.*.L >.3.k.c.z.W.W.c.c.c.c.W.c.p.p.p.k.z.c.c.z.*.7.j.b z.",
"u.u.M 9.M a U k.k.1.=.p.4.k.k.k.k.k.z.z.k.k.z.k.k.3.>.*.| %.*.r.=.=.*.*.,.j.k.z.c.z.c.W.W.Q.W.z.z.z.k.z.c.z.z.z.V.z.z.k.] e.G z.",
"u.B K q.V a U n V u.2.4.E.k.z.k.k.z.z.j.c.!. X_.j.k.>.>.>.,.:.,.p.n.3.3.j.c.z.z.c.z.z.z.V.z.E.z.z.k.4.k.W.Q.c.z.c.z.z.k.[ *.z.u.",
"* u g M i.M x d I p.k.k.k.c.z.k.k.c.j.j.V.XX'.Y.t.j.>.:.t.*. .z.z.z.z.k.z.c.k.z.c.z.z.z.V.z.k.z.k.k.4.k.z.[..XW.z.z.V.z.e.b &.p.",
"V : * 5 K s > u 5 u.e.k.k.c.c.c.k.j.i.t.J.T.U.O.X.d.:.*.t.*.j.c.z.z.z.k.z.k.k.k.k.z.W.e.t.z.z.z.z.k.z.z.z.c.c.z.z.z.V.c.!.[ u.i.",
"i.r.8.i.i.z.u.i.k.z.r.z.z.z.c.W.z.l.t. .| Z.'.o.H J.} { l.[ s.k.z.z.z.z.z.c.z.k.i.z.W.z.W.W.z.z.c.V.j.z.c.c.z.z.k.c.c.l.V.c.z.k.",
"i.i.i.z.c.z.z._.=X$XL.k.z.z.z.i.i.M.B. .[ h.B. .G G.G [ B.| s.M.z.c.W.z.z.c.z.z.[.z.z.z.oX X].M.r.j.r.j.z.z.z.z.k.c.M.z.z.V.c.z.",
"z.z.z.k.z.z.-X,X:X*X%X^.z.z.k.i.| z.B.[  .h.j.7.G F.| | B.0.H.!.c.c.W.z.z.c.z.z.V.!.c.-X|.!.].L. .7.*.z.z.e.z.k.k.k.z.z.z.c.c.c.",
"[.oX}.k.z.c.XX%X;X&X/.u.k.z.k.z.7. .B. .t.H.e.*.b e.{ [ B.5.G.z.V.z.z.z.z.z.j.V.!.M.).P.a.M.XXS.8.z.*.z.c.7.z.i.p.k.k.k.z.z.z.W.",
"z.}. Xz.c.l.^.^.K.D.&.i.p.z.k.k.c.[ B. .| H.m. .b  . .G *.L k.V.!.c.W.z.k.k.*.z.M.[.a.~ C.T.(.~ a.p.*.c.c.| k.j.k.k.p.4.k.c.z.c.",
"z.z.z.z.V.c.k.p.i.k.k.z.z.k.z.k.j.G r.} | H.m. .G [ t.i.| J c.!.c.z.c.z.k.k.=.k.M.l.e.i.n.[.V.u.i.M.>.>.M.| k.j.z.k.z.k.k.z.z.z.",
"z.c.z.l.c.z.z.z.z.z.j.r.z.z.z.k.k. .| ] 8.H.t.7.| *.7.>.i.a.c.V.[.c.Q.z.k.k.i.i.u.a.e.k.!.!.r.e.k.z.3.k.&.| k.k.z.p.z.z.z.z.z.z.",
"z.!.z.c.c.z.z.z.*.j.j.| p.p.z.i.r.i.| G k.z.j.e.i.*.*.r.k.k.z.c.V.z.z.z.k.k.i.r.i.k.r.z.c.k.i.i.k.*.L [ | L k.z.k.z.z.e.r.e.c.z.",
"V.V.z.z.z.z.z.z.*.e.z.j. . .z. .r.i.j.i.p.k.l.j.r.*.u.c.Q.i.c.z.z.z.z.W.c.z.z.k.z.k.i.k.z.t.r. .*.[ L | z.| | z.z.k.z.j.k. .e.z.",
"V.z.z.z.z.j.e.e.r.[ j.j.' ..e.e.k.k.k.k.p.k.c.k.p.e.r.x.Q.a.k.z.W.c.z.z.j.j.j.z.z.z.z.c.z.j.j.| e.*.[ [ z.z.j.z.z.z.z.z.c.z.z.z.",
"c.z.z.z.j.*.e.e.k.|  .j.G *.G { z.z.z.z.p.z.V.z.z. .p.c.l.z.z.z.z.z.z.j.e. . .z.z.z.z.z.k.k.z.z.z.z.z.c.z.z.z.z._.z.z.z.c.z.R.z.",
"c.z.z.z.z.z.z.z.z.e.| | f J J %.z.z.k.z.z.c.V.c.z.z.z.z.z.z.z.z.z.z.z.z.z.z.z.z.z.c.c.z.k.k.z.z.z.z.}.Q.W.z.z.Q.c.c.Q.k.z.k.E.z."
};
